<svg xmlns="http://www.w3.org/2000/svg" width="427.878" height="398.112" viewBox="0 0 427.878 398.112">
  <g id="mechanische-zahnrader" transform="translate(0 -13.385)">
    <g id="Gruppe_11" data-name="Gruppe 11">
      <path id="Pfad_7" data-name="Pfad 7" d="M188.634,234.066A106.421,106.421,0,0,0,211.4,214.939l23.942,13.826,21.8-37.76-23.894-13.8a105.139,105.139,0,0,0,5.16-29.311l27.183-4.793-7.574-42.938L230.84,104.96a105.7,105.7,0,0,0-14.906-25.744L233.7,58.046,200.3,30.022,182.549,51.174a104.949,104.949,0,0,0-27.954-10.2V13.385H111V40.971a104.962,104.962,0,0,0-27.956,10.2L65.289,30.022l-33.4,28.025,17.764,21.17a105.747,105.747,0,0,0-14.9,25.744L7.57,100.168,0,143.106,27.179,147.9a105.166,105.166,0,0,0,5.161,29.313l-23.9,13.795,21.8,37.759,23.943-13.822a106.421,106.421,0,0,0,22.766,19.125L67.5,260.032l40.972,14.91,9.438-25.928a105.7,105.7,0,0,0,29.765,0l9.437,25.93,40.97-14.914Zm-55.841-34a55.68,55.68,0,1,1,55.68-55.68A55.742,55.742,0,0,1,132.793,200.065Z" transform="translate(9 6)" fill="#c54625"/>
      <path id="Pfad_8" data-name="Pfad 8" d="M376.041,266.807l-18.8,6.08a75.684,75.684,0,0,0-13.115-16.779l10.5-16.764-26.447-16.57-10.5,16.75a74.99,74.99,0,0,0-20.826-4.471l-2.725-19.559L263.227,219.8l2.725,19.559a75.108,75.108,0,0,0-18.812,10l-14.672-13.244-20.912,23.168,14.684,13.259a75.668,75.668,0,0,0-8.02,19.726l-19.744-.714-1.129,31.188,19.743.716a75.277,75.277,0,0,0,6.558,20.271L208.07,355.871l19.185,24.615,15.609-12.164A76.371,76.371,0,0,0,260.9,379.633l-4.138,19.344,30.522,6.52,4.133-19.314a75.909,75.909,0,0,0,21.1-2.942l9.256,17.451,27.574-14.623L340.075,368.6a76.307,76.307,0,0,0,14.252-15.812l18.338,7.436L384.392,331.3l-18.3-7.422a75.589,75.589,0,0,0,.764-21.293l18.8-6.084Zm-78.912,83.2a39.859,39.859,0,1,1,33.977-44.978A39.9,39.9,0,0,1,297.129,350.006Z" transform="translate(9 6)" fill="#c54625"/>
      <path id="Pfad_9" data-name="Pfad 9" d="M418.146,158.647l.732-24.629-15.586-.463a59.753,59.753,0,0,0-5.285-15.971l12.24-9.67-15.271-19.33L382.738,98.25a59.7,59.7,0,0,0-14.318-8.816l3.164-15.291-24.123-5-3.17,15.281A59.165,59.165,0,0,0,327.65,86.84l-7.391-13.727L298.564,84.8l7.391,13.729a59.377,59.377,0,0,0-11.176,12.566l-14.5-5.77-9.111,22.893,14.508,5.779a59.69,59.69,0,0,0-.514,16.8l-14.809,4.9,7.732,23.4,14.809-4.9a59.42,59.42,0,0,0,10.426,13.2l-8.191,13.268L316.1,213.605l8.209-13.292a60.239,60.239,0,0,0,16.453,3.414l2.252,15.453,24.383-3.561-2.246-15.434a59.821,59.821,0,0,0,14.807-7.973L391.6,202.583l16.387-18.4L396.333,173.8a60.324,60.324,0,0,0,6.2-15.619Zm-58.71,13.2a31.467,31.467,0,1,1,12.785-42.623A31.5,31.5,0,0,1,359.436,171.844Z" transform="translate(9 6)" fill="#c54625"/>
      <path id="Pfad_4" data-name="Pfad 4" d="M188.634,234.066A106.421,106.421,0,0,0,211.4,214.939l23.942,13.826,21.8-37.76-23.894-13.8a105.139,105.139,0,0,0,5.16-29.311l27.183-4.793-7.574-42.938L230.84,104.96a105.7,105.7,0,0,0-14.906-25.744L233.7,58.046,200.3,30.022,182.549,51.174a104.949,104.949,0,0,0-27.954-10.2V13.385H111V40.971a104.962,104.962,0,0,0-27.956,10.2L65.289,30.022l-33.4,28.025,17.764,21.17a105.747,105.747,0,0,0-14.9,25.744L7.57,100.168,0,143.106,27.179,147.9a105.166,105.166,0,0,0,5.161,29.313l-23.9,13.795,21.8,37.759,23.943-13.822a106.421,106.421,0,0,0,22.766,19.125L67.5,260.032l40.972,14.91,9.438-25.928a105.7,105.7,0,0,0,29.765,0l9.437,25.93,40.97-14.914Zm-55.841-34a55.68,55.68,0,1,1,55.68-55.68A55.742,55.742,0,0,1,132.793,200.065Z" fill="#f08522"/>
      <path id="Pfad_5" data-name="Pfad 5" d="M376.041,266.807l-18.8,6.08a75.684,75.684,0,0,0-13.115-16.779l10.5-16.764-26.447-16.57-10.5,16.75a74.99,74.99,0,0,0-20.826-4.471l-2.725-19.559L263.227,219.8l2.725,19.559a75.108,75.108,0,0,0-18.812,10l-14.672-13.244-20.912,23.168,14.684,13.259a75.668,75.668,0,0,0-8.02,19.726l-19.744-.714-1.129,31.188,19.743.716a75.277,75.277,0,0,0,6.558,20.271L208.07,355.871l19.185,24.615,15.609-12.164A76.371,76.371,0,0,0,260.9,379.633l-4.138,19.344,30.522,6.52,4.133-19.314a75.909,75.909,0,0,0,21.1-2.942l9.256,17.451,27.574-14.623L340.075,368.6a76.307,76.307,0,0,0,14.252-15.812l18.338,7.436L384.392,331.3l-18.3-7.422a75.589,75.589,0,0,0,.764-21.293l18.8-6.084Zm-78.912,83.2a39.859,39.859,0,1,1,33.977-44.978A39.9,39.9,0,0,1,297.129,350.006Z" fill="#f08522"/>
      <path id="Pfad_6" data-name="Pfad 6" d="M418.146,158.647l.732-24.629-15.586-.463a59.753,59.753,0,0,0-5.285-15.971l12.24-9.67-15.271-19.33L382.738,98.25a59.7,59.7,0,0,0-14.318-8.816l3.164-15.291-24.123-5-3.17,15.281A59.165,59.165,0,0,0,327.65,86.84l-7.391-13.727L298.564,84.8l7.391,13.729a59.377,59.377,0,0,0-11.176,12.566l-14.5-5.77-9.111,22.893,14.508,5.779a59.69,59.69,0,0,0-.514,16.8l-14.809,4.9,7.732,23.4,14.809-4.9a59.42,59.42,0,0,0,10.426,13.2l-8.191,13.268L316.1,213.605l8.209-13.292a60.239,60.239,0,0,0,16.453,3.414l2.252,15.453,24.383-3.561-2.246-15.434a59.821,59.821,0,0,0,14.807-7.973L391.6,202.583l16.387-18.4L396.333,173.8a60.324,60.324,0,0,0,6.2-15.619Zm-58.71,13.2a31.467,31.467,0,1,1,12.785-42.623A31.5,31.5,0,0,1,359.436,171.844Z" fill="#f08522"/>
    </g>
  </g>
</svg>
